<?xml version="1.0" standalone="no"?>
<!DOCTYPE svg PUBLIC "-//W3C//DTD SVG 20010904//EN"
 "http://www.w3.org/TR/2001/REC-SVG-20010904/DTD/svg10.dtd">
<svg version="1.0" xmlns="http://www.w3.org/2000/svg"
 width="1181.000000pt" height="1181.000000pt" viewBox="0 0 1181.000000 1181.000000"
 preserveAspectRatio="xMidYMid meet">
<metadata>
Created by potrace 1.14, written by Peter Selinger 2001-2017
</metadata>
<g transform="translate(0.000000,1181.000000) scale(0.100000,-0.100000)"
fill="#000000" stroke="none">
<path d="M4979 9736 c-2 -2 -29 -7 -59 -11 -30 -4 -102 -15 -159 -26 -84 -15
-110 -24 -132 -45 -43 -41 -51 -71 -40 -140 8 -50 7 -61 -7 -72 -13 -10 -22
-7 -52 21 -56 54 -81 67 -128 67 -43 0 -47 -3 -174 -127 -148 -145 -167 -169
-169 -209 -3 -59 2 -73 47 -123 68 -76 55 -96 -51 -75 -57 11 -136 -36 -149
-90 -4 -17 -31 -201 -51 -339 -5 -37 18 -90 50 -116 15 -11 47 -23 73 -27 93
-13 106 -37 40 -74 -69 -37 -96 -68 -104 -116 -6 -39 0 -55 82 -214 54 -105
97 -178 113 -190 46 -32 91 -33 159 0 52 24 62 26 73 14 9 -11 6 -26 -15 -73
-14 -32 -26 -68 -26 -80 0 -27 22 -71 46 -93 32 -28 327 -170 364 -175 48 -6
96 28 134 94 41 72 61 68 80 -15 15 -68 34 -95 80 -119 31 -16 51 -15 201 11
50 8 112 18 140 22 27 3 61 11 75 17 14 6 28 10 33 9 4 -1 7 5 7 13 0 8 4 15
9 15 21 0 33 60 26 128 -8 84 2 95 51 55 85 -69 98 -75 137 -70 42 6 41 4 -8
-58 -18 -22 -40 -55 -49 -73 -9 -18 -20 -31 -24 -28 -4 2 -8 -3 -9 -12 0 -9
-17 -53 -37 -98 -20 -45 -46 -121 -59 -169 -19 -75 -28 -95 -65 -134 -66 -71
-99 -122 -122 -191 -19 -57 -21 -79 -16 -205 3 -96 1 -162 -9 -210 -13 -72
-70 -205 -87 -205 -5 0 -7 -4 -4 -8 3 -5 -8 -23 -24 -40 -16 -18 -26 -32 -22
-32 3 0 -14 -18 -38 -41 -54 -48 -150 -113 -157 -105 -3 3 -12 -1 -20 -9 -28
-29 -189 -64 -260 -57 -32 3 -30 6 145 180 98 97 185 188 195 202 26 37 21 66
-32 214 -80 217 -89 234 -127 248 -18 6 -31 15 -28 20 3 4 -3 5 -12 1 -13 -5
-15 -3 -9 7 6 9 4 11 -4 6 -13 -8 -253 73 -246 83 3 5 -39 6 -92 2 -9 0 -104
-87 -210 -193 l-193 -192 0 50 c0 88 20 166 66 263 77 159 209 270 384 322 90
26 110 41 110 85 0 40 -32 74 -71 74 -75 0 -235 -69 -336 -144 -183 -138 -291
-349 -298 -583 -6 -192 28 -273 114 -273 30 0 48 14 161 125 69 69 130 122
135 118 4 -5 5 -3 2 3 -8 14 66 87 78 77 4 -5 5 -3 2 3 -3 6 18 34 48 63 l54
53 113 -42 c62 -23 123 -45 134 -50 21 -8 28 -23 98 -210 l24 -65 -219 -219
c-121 -120 -220 -227 -220 -237 -1 -11 -2 -25 -3 -31 -4 -25 25 -68 57 -85 46
-23 258 -28 346 -8 36 9 71 13 78 10 8 -2 11 0 8 5 -3 6 -1 10 5 10 20 0 124
52 180 91 143 98 244 232 301 398 33 94 37 144 29 386 -1 42 4 86 13 110 l15
40 7 -30 c32 -139 76 -240 129 -298 l34 -37 68 30 c38 16 77 35 87 40 10 6 23
8 29 4 6 -4 8 -3 5 3 -4 6 21 28 56 49 34 21 64 41 65 46 2 4 8 8 14 8 5 0 16
7 25 15 8 8 19 12 25 9 6 -4 8 -3 5 3 -6 10 102 110 115 105 4 -1 7 1 6 5 -5
14 105 142 115 136 6 -4 7 -1 2 7 -5 8 -2 18 6 24 19 15 59 73 59 86 0 5 5 10
10 10 6 0 10 5 10 10 0 6 18 38 40 71 22 33 40 62 40 64 0 8 119 201 153 248
18 26 37 44 42 40 4 -5 5 -3 2 4 -12 20 123 170 142 158 6 -3 9 0 6 7 -3 7 8
22 25 33 16 11 30 23 30 28 0 4 7 7 15 7 8 0 15 5 15 10 0 6 5 10 10 10 6 0
27 11 48 24 20 14 46 26 57 28 11 2 23 6 26 10 3 5 16 9 30 10 15 1 30 11 36
25 7 14 7 21 1 17 -5 -4 -20 3 -32 14 -46 45 -66 62 -66 55 0 -3 -9 2 -20 12
-11 10 -20 15 -20 11 0 -4 -9 -2 -20 4 -11 6 -18 15 -16 19 3 4 -6 6 -21 3
-17 -3 -24 -1 -19 6 3 6 -1 9 -11 8 -9 -2 -37 3 -61 11 -25 7 -60 14 -79 17
-18 2 -36 6 -39 9 -9 9 90 96 136 119 46 24 102 27 255 17 135 -10 320 41 446
123 79 50 193 166 237 241 41 67 86 177 97 232 4 22 9 51 12 65 7 40 7 151 -1
205 -11 77 -25 112 -51 129 -26 17 -82 21 -103 7 -8 -4 -109 -103 -226 -219
l-211 -211 -133 48 c-74 27 -135 51 -136 53 -5 6 -96 254 -96 261 0 4 97 104
215 222 157 157 217 223 222 245 7 40 -14 88 -46 104 -60 31 -253 38 -363 12
-313 -73 -551 -327 -594 -636 -5 -34 -2 -43 22 -65 32 -30 74 -32 98 -6 10 11
26 54 37 98 67 272 280 452 565 477 34 3 64 2 67 -1 3 -3 -75 -85 -173 -183
-186 -183 -216 -225 -204 -278 8 -29 104 -290 124 -333 16 -35 29 -42 212
-109 206 -77 219 -77 296 -5 33 30 63 51 67 47 5 -4 5 -2 2 4 -8 14 26 47 39
37 5 -5 5 -4 1 2 -7 8 209 235 224 235 3 0 4 -28 2 -62 -16 -255 -175 -469
-415 -556 -69 -26 -82 -27 -263 -27 -266 0 -293 -11 -471 -187 -103 -102 -127
-120 -156 -122 -19 -1 -38 -5 -44 -8 -5 -3 -31 -13 -59 -21 -76 -22 -192 -76
-270 -125 -70 -44 -70 -44 -38 -11 68 73 67 134 -5 211 -68 73 -47 93 74 73
33 -5 97 29 115 61 10 17 28 107 44 216 l27 187 -23 40 c-24 43 -60 63 -136
76 -67 11 -66 38 3 73 23 12 53 35 68 52 45 54 37 90 -55 269 -44 86 -93 168
-109 183 -44 41 -88 45 -156 14 -94 -43 -111 -31 -69 51 32 64 32 108 0 154
-13 20 -21 40 -17 44 4 5 2 5 -5 1 -13 -7 -193 78 -205 98 -4 6 -8 8 -8 4 0
-4 -23 4 -51 19 -86 43 -163 41 -192 -5 -7 -11 -12 -11 -25 -1 -14 11 -15 11
-5 0 14 -16 -4 -64 -20 -54 -6 3 -7 1 -3 -5 11 -18 -12 -52 -36 -52 -15 0 -19
5 -15 20 3 12 1 17 -5 14 -5 -3 -8 0 -7 7 4 21 -12 82 -27 103 -23 33 -68 56
-110 56 -22 0 -43 -2 -45 -4z m35 -171 c4 -14 4 -30 1 -35 -4 -6 -1 -10 4 -10
6 0 11 -8 11 -19 0 -10 18 -37 41 -59 86 -86 223 -62 280 49 23 47 22 47 146
-16 46 -23 80 -45 76 -49 -4 -4 -1 -5 7 -2 8 3 22 2 30 -4 12 -8 12 -13 -2
-42 -38 -80 -30 -152 23 -213 52 -59 135 -73 210 -35 23 12 45 18 49 13 4 -4
34 -60 67 -124 l60 -117 -36 -18 c-20 -10 -42 -18 -49 -17 -7 0 -11 -1 -8 -4
3 -3 -3 -18 -13 -32 -41 -57 -45 -137 -12 -198 19 -37 74 -72 130 -84 40 -8
51 -15 47 -26 -3 -8 -6 -26 -6 -39 0 -14 -3 -23 -7 -21 -5 3 -8 -14 -9 -36 0
-23 -3 -60 -6 -82 -4 -22 -7 -48 -7 -58 -1 -15 -10 -17 -64 -16 -123 3 -192
-61 -192 -177 0 -58 3 -65 42 -112 l42 -49 -99 -98 -98 -98 -29 27 c-44 42
-84 59 -135 58 -118 -2 -192 -106 -164 -229 6 -26 10 -25 -139 -49 -55 -9
-104 -19 -109 -22 -5 -3 -6 1 -1 9 8 12 6 12 -8 0 -15 -12 -17 -11 -18 8 -2
25 -2 29 -13 61 -25 73 -93 120 -174 120 -71 0 -111 -30 -167 -125 -10 -16
-22 -12 -133 44 -67 34 -122 63 -122 65 0 2 9 23 20 47 25 56 25 102 0 154
-45 93 -147 124 -244 74 -31 -16 -41 -18 -48 -7 -12 18 -118 226 -118 231 0 2
22 18 48 34 102 63 120 187 40 272 -29 30 -63 46 -119 55 l-36 6 19 118 c10
64 20 126 23 137 4 18 12 20 77 20 65 0 77 3 110 28 57 44 84 135 58 201 -5
14 -25 42 -44 64 l-35 38 99 99 100 99 27 -26 c49 -45 82 -61 126 -60 62 2 75
6 114 36 50 40 71 93 66 165 l-4 58 83 12 c46 8 101 17 123 21 62 12 62 12 69
-15z"/>
<path d="M4910 9370 c0 -5 5 -10 11 -10 5 0 7 5 4 10 -3 6 -8 10 -11 10 -2 0
-4 -4 -4 -10z"/>
<path d="M4928 9214 c-86 -15 -182 -51 -240 -89 -21 -14 -41 -25 -44 -25 -16
0 -144 -142 -170 -188 -16 -28 -32 -48 -36 -46 -4 3 -5 -3 -1 -12 5 -13 3 -15
-7 -9 -8 5 -11 4 -7 -2 3 -5 -3 -33 -13 -62 -11 -28 -20 -61 -20 -72 0 -16 -4
-19 -16 -15 -14 5 -15 4 -4 -9 8 -9 10 -25 5 -42 -8 -30 -7 -132 1 -180 16
-95 66 -221 117 -297 45 -67 162 -164 255 -211 82 -41 86 -42 195 -59 258 -41
521 78 662 298 172 271 126 634 -107 851 -60 56 -69 62 -148 104 -134 70 -271
91 -422 65z m98 -146 c-6 9 6 11 51 7 232 -21 419 -180 472 -398 15 -63 16
-183 1 -238 -50 -189 -169 -317 -346 -375 -183 -60 -388 -15 -522 116 -61 59
-106 126 -96 142 4 6 3 8 -3 5 -16 -10 -54 117 -60 200 -15 222 119 431 327
513 69 27 151 40 169 26 11 -8 13 -8 7 2z"/>
<path d="M4955 8899 c-4 -6 -5 -12 -2 -15 2 -3 7 2 10 11 7 17 1 20 -8 4z"/>
<path d="M4836 8528 c3 -5 10 -6 15 -3 13 9 11 12 -6 12 -8 0 -12 -4 -9 -9z"/>
<path d="M4990 8169 c0 -5 5 -7 10 -4 6 3 10 8 10 11 0 2 -4 4 -10 4 -5 0 -10
-5 -10 -11z"/>
<path d="M5026 8132 c-3 -5 1 -9 9 -9 8 0 12 4 9 9 -3 4 -7 8 -9 8 -2 0 -6 -4
-9 -8z"/>
<path d="M5470 9211 c0 -6 4 -13 10 -16 6 -3 7 1 4 9 -7 18 -14 21 -14 7z"/>
<path d="M4590 9129 c0 -5 5 -7 10 -4 6 3 10 8 10 11 0 2 -4 4 -10 4 -5 0 -10
-5 -10 -11z"/>
<path d="M4309 8653 c-13 -16 -12 -17 4 -4 9 7 17 15 17 17 0 8 -8 3 -21 -13z"/>
<path d="M5750 8090 c0 -5 5 -10 11 -10 5 0 7 5 4 10 -3 6 -8 10 -11 10 -2 0
-4 -4 -4 -10z"/>
<path d="M4595 7941 c-3 -5 -2 -12 3 -15 5 -3 9 1 9 9 0 17 -3 19 -12 6z"/>
<path d="M5715 9610 c3 -5 8 -10 11 -10 2 0 4 5 4 10 0 6 -5 10 -11 10 -5 0
-7 -4 -4 -10z"/>
<path d="M7626 9572 c-3 -5 1 -9 9 -9 8 0 12 4 9 9 -3 4 -7 8 -9 8 -2 0 -6 -4
-9 -8z"/>
<path d="M8113 9045 c0 -8 4 -12 9 -9 5 3 6 10 3 15 -9 13 -12 11 -12 -6z"/>
<path d="M8190 9049 c0 -5 5 -7 10 -4 6 3 10 8 10 11 0 2 -4 4 -10 4 -5 0 -10
-5 -10 -11z"/>
<path d="M6550 8491 c0 -6 4 -13 10 -16 6 -3 7 1 4 9 -7 18 -14 21 -14 7z"/>
<path d="M6996 7992 c-3 -5 1 -9 9 -9 8 0 12 4 9 9 -3 4 -7 8 -9 8 -2 0 -6 -4
-9 -8z"/>
<path d="M7156 7928 c3 -5 10 -6 15 -3 13 9 11 12 -6 12 -8 0 -12 -4 -9 -9z"/>
<path d="M7150 7849 c0 -5 5 -7 10 -4 6 3 10 8 10 11 0 2 -4 4 -10 4 -5 0 -10
-5 -10 -11z"/>
<path d="M7107 7809 c7 -7 15 -10 18 -7 3 3 -2 9 -12 12 -14 6 -15 5 -6 -5z"/>
<path d="M7046 7740 c-27 -11 -54 -16 -60 -13 -6 3 -8 2 -3 -2 4 -5 -16 -21
-44 -37 -73 -39 -153 -103 -197 -156 -20 -24 -50 -58 -67 -76 -16 -17 -29 -33
-30 -36 0 -3 -6 -4 -13 -4 -10 2 -10 -1 -1 -12 6 -8 7 -14 2 -14 -5 0 -17 -16
-26 -35 -9 -19 -21 -35 -27 -35 -5 0 -10 -6 -10 -14 0 -8 -6 -21 -13 -28 -6
-7 -25 -38 -41 -68 -45 -84 -107 -175 -116 -173 -5 2 -7 -4 -4 -12 4 -8 1 -15
-5 -15 -6 0 -10 -4 -8 -8 9 -31 -293 -378 -321 -367 -7 2 -11 1 -8 -4 6 -9
-46 -54 -113 -96 -73 -45 -208 -115 -213 -110 -3 3 -11 -1 -17 -9 -18 -21 1
-45 68 -88 153 -98 359 -137 556 -103 22 3 47 7 55 9 24 3 153 46 173 57 10 5
22 7 27 4 6 -4 10 -2 10 2 0 5 25 20 55 34 30 13 55 27 55 30 0 4 14 12 30 19
17 7 30 17 30 22 0 6 8 7 17 4 10 -4 14 -4 11 0 -7 6 130 124 145 124 4 0 7 4
7 10 0 14 92 106 102 102 5 -1 6 3 2 9 -3 6 -3 14 2 18 32 23 159 246 172 302
2 8 8 16 13 17 5 2 7 7 4 12 -3 4 2 27 10 50 8 24 13 45 11 47 -3 3 2 22 9 43
14 41 14 285 0 329 -6 19 -5 23 6 17 8 -4 6 -1 -3 7 -10 8 -21 29 -25 48 -8
42 -92 193 -118 211 -15 12 -36 9 -89 -12z m100 -336 c13 -51 8 -180 -10 -264
-1 -8 -6 -32 -11 -53 -4 -20 -11 -40 -16 -43 -5 -3 -9 -12 -9 -21 0 -18 -61
-141 -94 -190 -13 -18 -26 -30 -30 -26 -4 4 -4 0 0 -10 3 -9 2 -17 -2 -17 -5
0 -20 -16 -33 -35 -13 -19 -28 -32 -34 -28 -5 3 -7 2 -4 -4 3 -5 -13 -29 -37
-52 -44 -43 -78 -51 -84 -21 -3 17 105 137 120 132 5 -1 7 2 3 8 -4 6 4 23 17
39 47 59 58 75 58 87 0 6 6 17 14 23 8 7 18 26 21 42 4 16 11 29 16 29 5 0 8
3 7 8 -1 4 8 38 21 77 12 38 24 95 28 125 3 30 6 60 7 65 0 6 6 13 11 17 7 5
7 8 0 8 -11 0 -19 105 -10 121 13 19 45 9 51 -17z m-452 -860 c8 -22 2 -29
-48 -57 -30 -17 -48 -21 -60 -15 -21 12 -20 37 2 45 9 4 26 15 36 25 24 22 62
23 70 2z"/>
<path d="M7435 7541 c-3 -5 -2 -12 3 -15 5 -3 9 1 9 9 0 17 -3 19 -12 6z"/>
<path d="M7515 7539 c-4 -6 -5 -12 -2 -15 2 -3 7 2 10 11 7 17 1 20 -8 4z"/>
<path d="M7310 7530 c0 -5 5 -10 11 -10 5 0 7 5 4 10 -3 6 -8 10 -11 10 -2 0
-4 -4 -4 -10z"/>
<path d="M7310 7129 c0 -5 5 -7 10 -4 6 3 10 8 10 11 0 2 -4 4 -10 4 -5 0 -10
-5 -10 -11z"/>
<path d="M4876 6803 c-6 -14 -5 -15 5 -6 7 7 10 15 7 18 -3 3 -9 -2 -12 -12z"/>
<path d="M5066 6772 c-3 -5 1 -9 9 -9 8 0 12 4 9 9 -3 4 -7 8 -9 8 -2 0 -6 -4
-9 -8z"/>
<path d="M7176 6683 c-6 -14 -5 -15 5 -6 7 7 10 15 7 18 -3 3 -9 -2 -12 -12z"/>
<path d="M4590 6490 c0 -5 5 -10 11 -10 5 0 7 5 4 10 -3 6 -8 10 -11 10 -2 0
-4 -4 -4 -10z"/>
<path d="M7150 6490 c0 -5 5 -10 11 -10 5 0 7 5 4 10 -3 6 -8 10 -11 10 -2 0
-4 -4 -4 -10z"/>
<path d="M6910 6330 c0 -5 5 -10 11 -10 5 0 7 5 4 10 -3 6 -8 10 -11 10 -2 0
-4 -4 -4 -10z"/>
<path d="M6595 6261 c-3 -5 -2 -12 3 -15 5 -3 9 1 9 9 0 17 -3 19 -12 6z"/>
<path d="M5630 6050 c0 -5 5 -10 10 -10 6 0 10 5 10 10 0 6 -4 10 -10 10 -5 0
-10 -4 -10 -10z"/>
<path d="M4077 5693 c-3 -2 -22 -6 -43 -8 -61 -7 -76 -11 -139 -41 -66 -32
-105 -70 -131 -126 -9 -21 -20 -38 -23 -38 -12 0 -5 -145 7 -167 7 -13 10 -23
7 -23 -7 0 11 -23 53 -67 29 -30 32 -36 20 -51 -12 -15 -11 -16 5 -3 15 12 22
11 52 -5 18 -10 31 -22 28 -27 -3 -6 -1 -7 5 -3 6 3 28 -3 49 -15 21 -13 60
-33 86 -46 26 -13 45 -28 42 -33 -3 -5 1 -7 9 -4 28 11 119 -67 140 -119 16
-40 2 -122 -19 -113 -9 3 -12 0 -9 -8 6 -17 -61 -50 -87 -43 -10 3 -19 1 -19
-3 0 -9 -20 -7 -82 5 -21 4 -38 11 -38 17 0 5 -4 7 -9 4 -19 -12 -128 89 -157
147 -32 64 -81 97 -99 67 -9 -14 -13 -110 -5 -110 4 0 8 -15 9 -32 4 -80 23
-161 41 -183 13 -16 60 -17 60 -2 0 5 9 7 20 4 10 -3 20 -1 22 3 2 5 32 3 67
-5 61 -12 221 -14 269 -2 108 27 242 141 242 207 0 11 3 19 8 16 11 -6 5 120
-7 142 -6 11 -7 22 -4 26 3 3 1 6 -5 6 -7 0 -12 10 -12 22 0 12 -3 19 -6 16
-8 -9 -66 51 -59 61 3 5 -3 7 -13 5 -9 -3 -27 4 -39 15 -12 12 -28 21 -36 21
-7 0 -23 9 -35 20 -12 12 -22 18 -22 14 0 -3 -11 1 -25 10 -13 9 -32 16 -41
16 -10 0 -14 5 -11 15 4 8 1 17 -5 21 -7 4 -8 3 -4 -4 4 -7 1 -12 -9 -12 -9 0
-13 4 -10 10 3 6 -1 7 -9 4 -10 -4 -16 -1 -16 7 0 7 -3 10 -6 6 -9 -9 -99 54
-125 87 -25 32 -40 126 -20 126 7 0 10 4 7 9 -3 4 6 19 19 31 14 13 25 20 25
16 0 -4 7 -1 15 8 20 20 112 15 148 -8 15 -10 27 -15 27 -11 0 3 6 0 14 -7 8
-8 27 -25 43 -39 15 -13 44 -46 63 -74 41 -59 48 -65 77 -65 29 0 38 32 28
102 -4 29 -9 62 -10 73 -6 54 -29 117 -46 126 -13 6 -32 6 -57 0 -37 -10 -105
-7 -174 9 -20 4 -39 6 -41 3z"/>
<path d="M5101 5666 c-12 -14 -12 -68 0 -60 4 2 17 -9 28 -25 14 -19 18 -32
11 -36 -7 -4 -8 -11 -2 -18 10 -13 -2 -57 -15 -57 -4 0 -9 -12 -10 -26 0 -15
-6 -30 -13 -34 -6 -4 -11 -10 -10 -14 5 -19 -13 -65 -22 -60 -6 4 -8 3 -5 -3
6 -10 -29 -113 -41 -123 -4 -3 -8 -12 -9 -20 -3 -25 -29 -91 -34 -86 -3 3 -5
-3 -6 -12 -1 -28 -102 -277 -113 -280 -5 -2 -10 -8 -10 -14 0 -13 -51 -58 -66
-58 -7 0 -15 -12 -19 -27 -10 -43 14 -53 131 -53 80 0 106 3 118 16 21 21 20
27 -9 62 -26 31 -35 79 -12 66 9 -6 9 -5 0 7 -9 11 -7 22 7 51 10 20 15 39 12
42 -3 4 0 6 7 6 7 0 10 4 6 9 -12 20 27 26 189 27 169 2 169 2 193 -24 12 -14
23 -33 23 -43 0 -10 4 -20 9 -23 17 -11 10 -78 -12 -102 -11 -13 -23 -22 -26
-20 -10 7 -10 -48 1 -61 7 -8 59 -12 178 -12 173 0 187 3 186 41 -1 9 -20 36
-43 61 -44 47 -89 140 -77 159 4 6 3 8 -3 5 -9 -6 -42 73 -35 82 2 2 0 7 -5
10 -14 10 -43 93 -36 104 3 6 2 7 -4 4 -9 -6 -39 68 -35 86 1 4 -3 7 -9 7 -6
0 -9 7 -5 15 3 8 1 15 -5 15 -6 0 -9 7 -5 15 3 8 1 15 -5 15 -6 0 -7 5 -4 10
3 6 1 10 -5 10 -7 0 -10 6 -7 14 3 8 1 16 -4 18 -6 2 -11 10 -13 18 -3 15 -11
38 -27 78 -5 12 -13 32 -18 45 -5 12 -18 43 -30 69 -12 26 -21 52 -21 58 0 13
-31 62 -45 72 -19 14 -212 9 -224 -6z m191 -443 c0 -13 4 -20 9 -17 5 3 9 1 9
-5 0 -5 -6 -12 -12 -14 -8 -3 -5 -6 6 -6 12 -1 16 -6 12 -16 -3 -8 -2 -15 2
-15 7 0 45 -91 40 -95 -12 -10 -48 -14 -48 -6 0 6 -5 11 -11 11 -5 0 -8 -4 -5
-9 6 -9 -179 -12 -202 -3 -15 5 -11 28 15 88 9 21 17 41 18 44 1 3 7 18 13 33
7 16 12 33 12 38 0 5 4 9 8 9 4 0 9 11 10 26 2 33 21 66 32 59 5 -3 12 0 16 6
4 7 3 9 -4 5 -6 -3 -13 -2 -17 4 -3 5 -1 10 6 10 7 0 9 3 6 6 -3 4 -1 16 5 27
9 18 15 10 45 -69 19 -49 34 -99 35 -111z"/>
<path d="M5187 5309 c7 -7 15 -10 18 -7 3 3 -2 9 -12 12 -14 6 -15 5 -6 -5z"/>
<path d="M5216 5292 c-3 -5 1 -9 9 -9 8 0 12 4 9 9 -3 4 -7 8 -9 8 -2 0 -6 -4
-9 -8z"/>
<path d="M5254 5255 c0 -13 3 -22 7 -19 8 4 6 30 -2 38 -3 3 -5 -5 -5 -19z"/>
<path d="M5186 5172 c-3 -5 1 -9 9 -9 8 0 12 4 9 9 -3 4 -7 8 -9 8 -2 0 -6 -4
-9 -8z"/>
<path d="M5226 5168 c3 -4 9 -8 15 -8 5 0 9 4 9 8 0 5 -7 9 -15 9 -8 0 -12 -4
-9 -9z"/>
<path d="M5265 5149 c-3 -4 2 -6 10 -5 21 3 28 13 10 13 -9 0 -18 -4 -20 -8z"/>
<path d="M5299 5123 c-13 -16 -12 -17 4 -4 16 13 21 21 13 21 -2 0 -10 -8 -17
-17z"/>
<path d="M6807 5668 c2 -5 -3 -8 -11 -8 -26 0 -24 -46 3 -70 22 -19 36 -54 18
-44 -9 5 -9 4 -1 -5 12 -13 -4 -65 -81 -261 -20 -52 -44 -116 -53 -142 -8 -26
-18 -46 -21 -44 -3 2 -7 -7 -8 -21 0 -14 -5 -28 -10 -32 -4 -3 -8 -12 -9 -18
-2 -29 -4 -34 -11 -30 -5 3 -9 -6 -9 -19 -1 -13 -5 -32 -10 -42 -4 -9 -8 -20
-8 -24 -1 -3 -4 -9 -7 -12 -10 -10 -32 51 -23 65 4 8 3 10 -4 5 -12 -7 -17 11
-13 43 2 7 -2 10 -8 6 -7 -4 -11 4 -11 19 0 14 -4 26 -9 26 -9 0 -25 51 -21
66 1 4 -2 10 -7 13 -5 3 -17 29 -27 56 -10 28 -26 68 -36 90 -10 23 -20 50
-22 60 -1 11 -6 22 -10 25 -4 3 -9 17 -10 30 -2 14 -5 27 -8 30 -15 15 -30 52
-25 60 4 6 2 10 -2 10 -5 0 -8 14 -7 31 2 34 50 82 69 71 6 -3 6 0 -1 9 -5 8
-10 21 -9 29 0 8 -9 18 -20 22 -34 10 -315 9 -336 -2 -30 -16 -23 -46 20 -88
44 -42 75 -97 67 -118 -3 -8 -2 -13 2 -10 4 2 18 -23 31 -57 13 -34 32 -80 41
-102 10 -22 28 -67 40 -100 12 -33 29 -72 36 -87 8 -15 13 -30 12 -35 -1 -4 8
-27 20 -50 12 -24 20 -43 18 -43 -3 0 1 -12 9 -27 8 -15 12 -30 9 -35 -3 -4 0
-8 5 -8 6 0 11 -6 11 -14 0 -7 7 -26 14 -42 8 -15 13 -31 10 -36 -3 -4 -1 -8
4 -8 5 0 14 -18 21 -41 7 -22 20 -55 30 -72 15 -27 24 -32 54 -32 19 0 33 -4
30 -8 -3 -5 4 -4 17 3 12 6 28 9 36 6 8 -3 12 -2 9 3 -3 6 1 13 8 18 8 4 24
38 37 75 13 37 27 65 32 62 4 -3 5 2 2 10 -3 9 -1 16 6 16 6 0 9 4 6 9 -9 14
5 42 17 34 6 -4 7 -1 3 6 -8 13 111 341 129 353 5 4 6 8 1 8 -5 0 -3 7 4 15 7
8 10 15 7 15 -3 0 8 32 24 71 16 39 29 77 29 85 0 8 5 14 12 14 6 0 9 3 5 6
-12 13 26 70 82 122 l56 53 -24 19 c-17 15 -39 20 -80 21 -31 0 -77 1 -103 2
-25 1 -44 -1 -41 -5z"/>
<path d="M7430 5672 c-89 -3 -107 -8 -113 -34 -5 -16 3 -30 32 -57 50 -46 70
-102 48 -130 -9 -12 -9 -13 1 -7 10 6 12 -53 12 -298 -1 -168 -4 -306 -8 -306
-4 0 -8 -12 -9 -26 -1 -17 -16 -40 -42 -64 -45 -41 -47 -74 -5 -84 46 -12 667
-7 702 5 46 16 62 62 66 190 1 36 6 72 11 80 4 8 5 11 0 7 -4 -4 -14 -3 -21 3
-30 25 -59 1 -99 -77 -40 -79 -91 -127 -107 -101 -5 8 -8 7 -8 -4 0 -14 -13
-17 -87 -17 -55 0 -91 5 -95 12 -6 8 -8 8 -8 0 0 -7 -11 -9 -27 -6 -34 6 -68
38 -52 48 8 4 7 9 -2 15 -12 8 -11 11 1 19 10 6 11 10 3 10 -7 0 -13 5 -13 11
0 5 5 7 12 3 7 -5 8 -3 2 7 -11 18 -16 122 -6 115 4 -2 14 0 22 5 12 8 11 9
-4 7 -14 -2 -20 4 -23 25 -2 18 0 26 7 22 5 -3 10 -2 10 4 0 5 -6 12 -12 14
-10 4 -9 8 2 16 10 7 11 11 3 11 -7 0 -13 5 -13 11 0 5 5 7 10 4 6 -3 10 -1
10 4 0 6 -4 11 -9 11 -5 0 -8 12 -6 28 1 15 8 26 14 24 6 -1 10 4 9 10 -2 7 3
12 10 11 6 -2 12 1 12 5 0 15 44 11 57 -6 12 -16 13 -16 7 1 -13 36 73 5 114
-42 13 -14 34 -38 47 -53 13 -14 21 -28 19 -31 -3 -2 8 -2 23 1 33 6 44 19 38
47 -20 102 -25 137 -19 147 4 7 3 8 -4 4 -8 -5 -12 0 -12 12 0 22 -29 95 -30
75 0 -9 -7 -10 -26 -3 -14 6 -23 6 -20 1 5 -8 -15 -21 -30 -20 -4 0 -10 -5
-15 -12 -9 -15 -149 -23 -149 -9 0 5 -6 7 -14 4 -14 -6 -30 22 -20 37 3 5 0 9
-7 9 -8 0 -7 5 2 17 8 9 9 14 3 11 -6 -4 -10 6 -11 28 -1 23 3 32 10 27 9 -5
8 -2 0 8 -19 23 -11 81 14 105 19 19 34 22 122 23 63 1 101 -2 101 -8 0 -6 6
-8 13 -5 16 6 83 -39 80 -54 -2 -7 4 -9 14 -5 12 5 15 2 10 -10 -4 -10 -2 -16
5 -14 7 1 17 -8 23 -20 5 -13 13 -23 17 -23 5 0 8 -6 8 -14 0 -15 21 -26 51
-26 37 0 37 71 1 185 -28 88 -26 87 -331 89 -141 0 -285 0 -321 -2z"/>
<path d="M4100 5530 c-9 -6 -10 -10 -3 -10 6 0 15 5 18 10 8 12 4 12 -15 0z"/>
<path d="M7715 5510 c3 -5 8 -10 11 -10 2 0 4 5 4 10 0 6 -5 10 -11 10 -5 0
-7 -4 -4 -10z"/>
<path d="M7736 5468 c3 -5 10 -6 15 -3 13 9 11 12 -6 12 -8 0 -12 -4 -9 -9z"/>
<path d="M7775 5450 c-3 -5 -1 -10 4 -10 6 0 11 5 11 10 0 6 -2 10 -4 10 -3 0
-8 -4 -11 -10z"/>
<path d="M7870 5449 c0 -5 5 -7 10 -4 6 3 10 8 10 11 0 2 -4 4 -10 4 -5 0 -10
-5 -10 -11z"/>
<path d="M4053 5425 c0 -8 4 -12 9 -9 5 3 6 10 3 15 -9 13 -12 11 -12 -6z"/>
<path d="M4079 5403 c-13 -16 -12 -17 4 -4 9 7 17 15 17 17 0 8 -8 3 -21 -13z"/>
<path d="M6096 5408 c3 -5 10 -6 15 -3 13 9 11 12 -6 12 -8 0 -12 -4 -9 -9z"/>
<path d="M4175 5369 c-3 -4 2 -6 10 -5 21 3 28 13 10 13 -9 0 -18 -4 -20 -8z"/>
<path d="M7775 5370 c3 -5 8 -10 11 -10 2 0 4 5 4 10 0 6 -5 10 -11 10 -5 0
-7 -4 -4 -10z"/>
<path d="M7373 5355 c0 -8 4 -12 9 -9 5 3 6 10 3 15 -9 13 -12 11 -12 -6z"/>
<path d="M7673 5355 c0 -8 4 -12 9 -9 5 3 6 10 3 15 -9 13 -12 11 -12 -6z"/>
<path d="M4095 5350 c3 -5 8 -10 11 -10 2 0 4 5 4 10 0 6 -5 10 -11 10 -5 0
-7 -4 -4 -10z"/>
<path d="M4315 5331 c-3 -5 -2 -12 3 -15 5 -3 9 1 9 9 0 17 -3 19 -12 6z"/>
<path d="M6433 5325 c0 -8 4 -12 9 -9 5 3 6 10 3 15 -9 13 -12 11 -12 -6z"/>
<path d="M6155 5301 c-3 -5 -2 -12 3 -15 5 -3 9 1 9 9 0 17 -3 19 -12 6z"/>
<path d="M4990 5249 c0 -5 5 -7 10 -4 6 3 10 8 10 11 0 2 -4 4 -10 4 -5 0 -10
-5 -10 -11z"/>
<path d="M6640 5250 c-9 -6 -10 -10 -3 -10 6 0 15 5 18 10 8 12 4 12 -15 0z"/>
<path d="M7375 5250 c-3 -5 -1 -10 4 -10 6 0 11 5 11 10 0 6 -2 10 -4 10 -3 0
-8 -4 -11 -10z"/>
<path d="M6876 5232 c-3 -5 1 -9 9 -9 8 0 12 4 9 9 -3 4 -7 8 -9 8 -2 0 -6 -4
-9 -8z"/>
<path d="M6500 5190 c-8 -5 -10 -10 -5 -10 6 0 17 5 25 10 8 5 11 10 5 10 -5
0 -17 -5 -25 -10z"/>
<path d="M7775 5159 c-4 -6 -5 -12 -2 -15 2 -3 7 2 10 11 7 17 1 20 -8 4z"/>
<path d="M6536 5152 c-3 -5 1 -9 9 -9 8 0 12 4 9 9 -3 4 -7 8 -9 8 -2 0 -6 -4
-9 -8z"/>
<path d="M3870 5136 c0 -2 7 -7 16 -10 8 -3 12 -2 9 4 -6 10 -25 14 -25 6z"/>
<path d="M6576 5125 c-9 -26 -7 -32 5 -12 6 10 9 21 6 23 -2 3 -7 -2 -11 -11z"/>
<path d="M7315 5130 c-3 -5 -1 -10 4 -10 6 0 11 5 11 10 0 6 -2 10 -4 10 -3 0
-8 -4 -11 -10z"/>
<path d="M3915 5110 c-3 -5 -1 -10 4 -10 6 0 11 5 11 10 0 6 -2 10 -4 10 -3 0
-8 -4 -11 -10z"/>
<path d="M7735 5110 c3 -5 8 -10 11 -10 2 0 4 5 4 10 0 6 -5 10 -11 10 -5 0
-7 -4 -4 -10z"/>
<path d="M6236 5088 c3 -5 10 -6 15 -3 13 9 11 12 -6 12 -8 0 -12 -4 -9 -9z"/>
<path d="M3930 5069 c0 -5 5 -7 10 -4 6 3 10 8 10 11 0 2 -4 4 -10 4 -5 0 -10
-5 -10 -11z"/>
<path d="M7715 5070 c3 -5 8 -10 11 -10 2 0 4 5 4 10 0 6 -5 10 -11 10 -5 0
-7 -4 -4 -10z"/>
<path d="M6590 5051 c0 -6 4 -13 10 -16 6 -3 7 1 4 9 -7 18 -14 21 -14 7z"/>
<path d="M6236 5037 c3 -10 9 -15 12 -12 3 3 0 11 -7 18 -10 9 -11 8 -5 -6z"/>
<path d="M7690 5030 c0 -5 5 -10 11 -10 5 0 7 5 4 10 -3 6 -8 10 -11 10 -2 0
-4 -4 -4 -10z"/>
<path d="M3950 5016 c0 -2 7 -7 16 -10 8 -3 12 -2 9 4 -6 10 -25 14 -25 6z"/>
<path d="M4055 4990 c3 -5 8 -10 11 -10 2 0 4 5 4 10 0 6 -5 10 -11 10 -5 0
-7 -4 -4 -10z"/>
<path d="M4146 4969 c2 -4 13 -7 24 -6 23 2 17 10 -10 12 -10 1 -17 -2 -14 -6z"/>
<path d="M4053 4955 c0 -8 4 -12 9 -9 5 3 6 10 3 15 -9 13 -12 11 -12 -6z"/>
<path d="M7627 4949 c7 -7 15 -10 18 -7 3 3 -2 9 -12 12 -14 6 -15 5 -6 -5z"/>
<path d="M3996 4932 c-3 -5 1 -9 9 -9 8 0 12 4 9 9 -3 4 -7 8 -9 8 -2 0 -6 -4
-9 -8z"/>
<path d="M5159 4923 c-13 -16 -12 -17 4 -4 9 7 17 15 17 17 0 8 -8 3 -21 -13z"/>
<path d="M5093 4915 c0 -8 4 -12 9 -9 5 3 6 10 3 15 -9 13 -12 11 -12 -6z"/>
<path d="M5250 4909 c0 -5 5 -7 10 -4 6 3 10 8 10 11 0 2 -4 4 -10 4 -5 0 -10
-5 -10 -11z"/>
<path d="M6315 4911 c-3 -5 -2 -12 3 -15 5 -3 9 1 9 9 0 17 -3 19 -12 6z"/>
<path d="M4213 4895 c0 -8 4 -15 9 -15 4 0 8 4 8 9 0 6 -4 12 -8 15 -5 3 -9
-1 -9 -9z"/>
<path d="M5316 4897 c3 -10 9 -15 12 -12 3 3 0 11 -7 18 -10 9 -11 8 -5 -6z"/>
<path d="M4120 4890 c-9 -6 -10 -10 -3 -10 6 0 15 5 18 10 8 12 4 12 -15 0z"/>
<path d="M5166 4892 c-3 -5 1 -9 9 -9 8 0 12 4 9 9 -3 4 -7 8 -9 8 -2 0 -6 -4
-9 -8z"/>
<path d="M5350 4890 c0 -5 9 -8 20 -7 21 1 18 10 -5 13 -8 1 -15 -2 -15 -6z"/>
<path d="M5713 4885 c0 -8 4 -12 9 -9 5 3 6 10 3 15 -9 13 -12 11 -12 -6z"/>
<path d="M7373 4885 c0 -8 4 -12 9 -9 5 3 6 10 3 15 -9 13 -12 11 -12 -6z"/>
<path d="M5056 4868 c3 -4 11 -5 19 -1 21 7 19 12 -4 10 -11 0 -18 -5 -15 -9z"/>
<path d="M5350 4856 c0 -2 7 -7 16 -10 8 -3 12 -2 9 4 -6 10 -25 14 -25 6z"/>
<path d="M5393 4845 c0 -8 4 -12 9 -9 5 3 6 10 3 15 -9 13 -12 11 -12 -6z"/>
<path d="M7710 4810 c0 -5 5 -10 11 -10 5 0 7 5 4 10 -3 6 -8 10 -11 10 -2 0
-4 -4 -4 -10z"/>
<path d="M4036 4797 c3 -10 9 -15 12 -12 3 3 0 11 -7 18 -10 9 -11 8 -5 -6z"/>
<path d="M4135 4791 c-3 -5 -2 -12 3 -15 5 -3 9 1 9 9 0 17 -3 19 -12 6z"/>
<path d="M6666 4768 c3 -5 10 -6 15 -3 13 9 11 12 -6 12 -8 0 -12 -4 -9 -9z"/>
<path d="M5553 4615 c0 -8 4 -12 9 -9 5 3 6 10 3 15 -9 13 -12 11 -12 -6z"/>
<path d="M5633 4605 c0 -8 4 -12 9 -9 5 3 6 10 3 15 -9 13 -12 11 -12 -6z"/>
<path d="M6470 4611 c0 -6 4 -13 10 -16 6 -3 7 1 4 9 -7 18 -14 21 -14 7z"/>
<path d="M7710 4616 c0 -2 7 -7 16 -10 8 -3 12 -2 9 4 -6 10 -25 14 -25 6z"/>
<path d="M3833 4563 c0 -9 4 -10 14 -2 7 6 13 12 13 14 0 1 -6 2 -13 2 -8 0
-14 -6 -14 -14z"/>
<path d="M7759 4563 c-13 -16 -12 -17 4 -4 9 7 17 15 17 17 0 8 -8 3 -21 -13z"/>
<path d="M5440 4530 c-9 -6 -10 -10 -3 -10 6 0 15 5 18 10 8 12 4 12 -15 0z"/>
<path d="M1850 3674 c-35 -37 -33 -50 10 -96 23 -25 37 -48 35 -60 -2 -10 0
-18 5 -18 4 0 7 -12 5 -27 -2 -16 -4 -55 -6 -88 -1 -33 -7 -66 -13 -74 -8 -11
-8 -13 1 -8 15 9 14 -35 -2 -45 -6 -5 -5 -8 3 -8 7 0 11 -4 8 -8 -3 -4 -6 -56
-8 -115 -2 -59 -7 -107 -11 -107 -5 0 -5 -5 -1 -12 11 -18 4 -100 -9 -117 -9
-11 -9 -13 0 -8 9 6 11 -3 9 -30 -5 -53 -15 -73 -53 -110 -34 -33 -44 -73 -18
-73 8 0 15 -3 15 -7 0 -5 21 -7 47 -6 166 6 172 6 179 22 11 25 5 40 -28 71
-28 27 -31 37 -35 106 -3 60 -1 74 9 68 10 -6 10 -4 2 7 -6 8 -10 39 -8 69 1
30 3 86 3 123 1 38 5 66 9 63 5 -3 9 1 9 9 0 8 -3 12 -7 10 -9 -5 -6 122 3
131 4 4 2 13 -4 20 -7 8 -7 14 1 19 8 5 21 -15 35 -55 4 -12 38 -86 43 -94 3
-5 -3 -7 -14 -3 -15 5 -14 3 4 -9 12 -9 22 -25 22 -35 0 -11 6 -19 13 -19 8 0
7 -4 -3 -10 -13 -8 -13 -10 2 -10 11 0 16 -6 13 -19 -2 -11 3 -22 12 -25 14
-6 13 -9 -3 -29 -15 -17 -16 -19 -2 -8 16 12 19 10 28 -15 6 -15 8 -34 6 -41
-3 -8 -2 -12 3 -9 10 6 26 -27 81 -164 42 -105 62 -125 108 -104 9 4 20 6 25
6 4 -1 7 7 7 18 0 11 5 20 11 20 5 0 7 5 4 10 -3 6 -1 10 5 10 6 0 8 5 5 10
-3 6 1 13 9 16 9 3 14 10 11 14 -7 11 5 41 14 36 4 -3 7 4 8 14 1 10 14 45 29
77 15 32 38 83 51 113 56 126 64 140 73 140 5 0 7 6 4 14 -3 7 1 20 9 27 7 8
14 16 14 19 0 19 26 80 34 80 5 0 8 3 8 8 -3 17 2 32 9 32 17 0 13 -92 -5
-114 -17 -19 -17 -20 0 -7 16 13 17 7 18 -85 0 -55 2 -155 3 -224 2 -103 -1
-131 -15 -161 -10 -20 -25 -39 -34 -43 -34 -13 -35 -91 -2 -93 7 -1 81 -2 166
-3 177 -1 188 3 177 64 -4 20 -11 34 -17 31 -5 -4 -12 1 -15 9 -3 9 -10 13
-15 10 -5 -3 -9 1 -9 10 0 8 -5 16 -10 18 -6 2 -13 17 -16 33 -2 17 -7 38 -10
48 -3 9 0 17 6 17 6 0 8 5 4 11 -4 7 -9 60 -11 118 -2 58 -5 125 -6 148 -2 25
1 39 6 36 6 -4 7 -1 1 8 -13 21 -11 42 6 64 14 18 14 19 -2 7 -14 -12 -16 -9
-15 20 2 21 7 32 15 30 8 -1 11 2 7 8 -3 6 -10 8 -15 5 -4 -3 -10 25 -12 61
-1 36 1 68 6 71 4 3 3 9 -3 12 -15 10 20 73 47 86 12 5 22 14 23 20 0 5 2 18
4 27 6 33 -23 42 -133 43 -84 1 -111 -2 -125 -14 -19 -15 -57 -90 -57 -110 0
-6 -5 -11 -11 -11 -5 0 -8 -4 -5 -9 3 -4 -1 -17 -9 -27 -8 -10 -15 -27 -15
-37 0 -10 -4 -15 -10 -12 -5 3 -10 -1 -10 -10 0 -27 -49 -125 -62 -125 -9 0
-9 -3 -3 -8 7 -5 4 -21 -10 -49 -12 -24 -26 -39 -30 -35 -5 4 -5 2 -2 -4 8
-14 -39 -124 -53 -124 -5 0 -6 -8 -3 -17 5 -12 2 -15 -9 -11 -8 4 -15 1 -15
-8 0 -7 4 -11 9 -8 13 8 9 -9 -7 -29 -13 -18 -14 -18 -25 3 -6 12 -9 28 -6 36
3 8 2 13 -3 10 -8 -5 -156 336 -151 350 1 4 -4 10 -11 14 -6 4 -12 21 -13 38
0 17 -4 28 -7 26 -10 -6 -20 26 -12 38 3 7 1 8 -5 4 -7 -4 -16 9 -23 35 -7 22
-24 53 -38 68 -25 27 -29 27 -129 26 -80 -1 -101 2 -98 12 7 18 5 16 -24 -13z"/>
<path d="M5027 3683 c-2 -1 -17 -4 -33 -7 -16 -2 -36 -6 -44 -9 -62 -25 -76
-30 -82 -29 -5 1 -8 -2 -8 -7 0 -10 -39 -27 -53 -23 -5 1 -6 -2 -2 -8 3 -5 2
-10 -2 -10 -14 0 -91 -78 -119 -120 -18 -27 -31 -37 -42 -33 -12 3 -13 2 -5
-4 10 -7 5 -27 -17 -86 -17 -42 -32 -90 -34 -106 -2 -15 -6 -33 -10 -39 -3 -6
-2 -13 4 -17 5 -3 10 -11 10 -16 0 -6 -4 -8 -9 -4 -6 3 -6 -7 -1 -26 6 -19 6
-38 0 -49 -6 -11 -5 -21 1 -27 6 -6 11 -27 12 -46 0 -20 5 -34 9 -31 8 5 10
-7 11 -53 1 -12 4 -20 8 -18 3 3 17 -16 29 -40 13 -25 27 -45 32 -45 4 0 8 -6
8 -13 0 -7 10 -18 21 -26 18 -11 19 -15 8 -23 -11 -8 -10 -9 4 -4 10 3 25 -2
36 -13 11 -11 22 -17 25 -13 3 3 6 0 6 -6 0 -7 7 -12 15 -12 8 0 15 -4 15 -10
0 -5 9 -10 20 -10 11 0 20 -4 20 -9 0 -5 12 -11 28 -14 15 -3 38 -8 52 -11 14
-4 48 -9 75 -12 28 -3 51 -7 53 -9 2 -2 17 1 33 5 17 5 31 5 35 -1 4 -6 11 -6
19 1 8 7 19 9 25 5 5 -3 10 -1 10 4 0 6 10 11 23 11 12 0 42 9 66 21 25 11 50
18 57 15 8 -3 11 0 8 9 -3 7 3 16 14 19 11 4 38 26 60 50 23 24 43 42 46 40 3
-2 4 -1 1 3 -3 3 -1 11 4 17 17 21 20 64 5 77 -11 9 -21 6 -50 -17 -85 -69
-109 -84 -160 -104 -53 -19 -163 -28 -177 -13 -4 3 -19 8 -34 9 -14 2 -29 8
-33 14 -4 7 -10 11 -14 11 -19 -3 -29 3 -76 48 -34 32 -50 55 -47 65 4 11 1
13 -10 9 -11 -4 -14 -2 -9 5 4 7 2 12 -5 12 -6 0 -9 8 -6 20 3 11 0 18 -7 17
-6 -1 -10 4 -8 11 1 6 -2 12 -6 12 -5 0 -9 6 -10 13 -1 14 -10 52 -12 52 -5 0
-12 51 -17 124 -4 69 -3 82 8 75 11 -6 12 -5 2 7 -9 12 -9 24 0 57 7 24 16 39
21 35 4 -4 4 0 1 9 -17 44 95 168 168 186 65 17 117 22 117 12 0 -5 6 -7 14
-4 7 3 31 -2 52 -11 22 -9 41 -17 44 -18 19 -6 120 -107 120 -119 0 -5 8 -16
18 -26 9 -11 25 -29 34 -40 10 -12 27 -22 38 -22 46 0 46 57 -3 235 -11 44
-20 84 -18 90 1 5 -1 7 -5 3 -4 -4 -13 -3 -21 3 -10 9 -25 8 -58 -1 -35 -10
-62 -10 -124 -1 -71 11 -166 13 -174 4z"/>
<path d="M7323 3683 c4 -6 -16 -9 -54 -8 -53 1 -63 -2 -76 -21 -17 -27 -8 -50
31 -79 25 -19 36 -43 51 -108 4 -21 3 -27 -6 -21 -8 4 -9 3 -5 -4 11 -19 16
-53 6 -47 -5 3 -12 1 -15 -5 -4 -6 -1 -9 6 -8 14 3 20 -90 6 -99 -4 -2 -4 -10
0 -16 11 -18 12 -107 1 -100 -6 3 -7 -2 -1 -13 12 -27 9 -59 -7 -78 -11 -15
-11 -17 0 -14 10 2 14 -9 15 -42 0 -25 -3 -50 -8 -57 -4 -6 -4 -14 1 -17 13
-8 5 -98 -10 -107 -10 -7 -10 -9 0 -9 10 0 10 -4 0 -22 -22 -38 -46 -60 -57
-54 -7 4 -8 1 -5 -8 4 -9 0 -18 -9 -22 -19 -7 -10 -41 14 -55 27 -14 347 -11
356 4 17 27 11 47 -22 78 -41 39 -59 81 -42 99 9 10 9 11 0 6 -8 -4 -11 3 -11
24 1 17 -2 33 -5 37 -10 10 14 34 27 26 6 -3 7 -2 3 3 -5 5 -14 9 -20 9 -12 0
-17 44 -5 51 4 3 4 13 -1 23 -6 10 -6 23 -1 31 6 9 5 17 -3 22 -8 5 -8 11 -2
16 12 8 13 32 2 50 -8 12 -2 16 18 12 5 -1 2 7 -7 17 -20 21 -19 18 -9 66 5
20 5 39 1 42 -9 6 -2 44 13 63 7 9 6 11 -6 6 -11 -4 -14 0 -12 13 2 10 4 28 4
41 1 13 5 21 10 17 5 -3 13 0 17 6 4 8 3 9 -5 5 -16 -10 -24 18 -17 60 4 21
23 52 47 77 21 23 39 51 39 63 0 24 -33 42 -70 39 -14 -1 -33 2 -44 7 -12 7
-16 7 -12 0 7 -12 -94 -9 -114 3 -8 5 -11 4 -7 -2z"/>
<path d="M3610 3665 c-15 -18 -5 -51 25 -81 13 -13 21 -32 20 -46 -1 -12 -3
-29 -4 -36 0 -7 -5 -11 -9 -8 -5 3 -8 -5 -7 -17 1 -12 -2 -29 -6 -37 -11 -20
-29 -66 -79 -195 -24 -60 -51 -129 -62 -152 -10 -23 -18 -45 -18 -49 0 -4 -8
-16 -17 -27 -10 -11 -13 -17 -6 -13 8 4 7 -2 -2 -21 -8 -15 -15 -34 -15 -41 0
-7 -5 -10 -12 -6 -6 4 -8 3 -4 -4 6 -11 -29 -113 -43 -122 -5 -3 -14 -15 -20
-28 -8 -15 -18 -21 -27 -18 -8 3 -12 2 -9 -4 3 -5 -3 -14 -14 -19 -27 -15 -36
-48 -17 -66 11 -11 39 -15 116 -15 141 0 166 17 115 78 -14 17 -25 39 -25 49
0 30 31 114 40 108 4 -3 6 4 3 14 -3 13 3 23 19 32 27 15 28 15 39 -3 5 -7 9
-8 9 -2 0 6 38 11 105 12 89 1 106 -1 115 -16 11 -16 11 -16 6 1 -4 13 0 17
19 17 14 0 25 -6 25 -12 0 -10 2 -10 8 0 7 10 13 9 29 -5 23 -21 43 -70 23
-58 -9 5 -11 4 -6 -4 4 -6 11 -9 16 -6 4 3 10 -2 14 -10 3 -8 0 -15 -7 -15 -8
0 -8 -3 2 -9 7 -5 10 -14 7 -20 -4 -6 -1 -11 6 -11 9 0 9 -3 -2 -10 -8 -5 -12
-10 -8 -10 4 0 0 -9 -9 -19 -9 -11 -21 -17 -26 -14 -6 3 -7 1 -3 -5 4 -7 2
-12 -5 -12 -7 0 -9 -3 -6 -6 3 -4 2 -16 -4 -27 -9 -15 -8 -18 2 -12 8 6 11 4
6 -7 -5 -14 16 -16 168 -17 147 -2 175 0 189 14 18 19 19 24 6 45 -6 9 -5 20
3 30 10 13 10 13 -4 3 -13 -11 -19 -10 -33 5 -9 10 -13 22 -9 27 5 4 3 5 -4 1
-13 -7 -45 32 -37 46 3 4 1 8 -3 8 -8 0 -47 92 -49 115 0 6 -13 36 -27 69 -31
67 -31 69 -14 61 6 -4 5 -1 -4 7 -8 7 -25 40 -38 73 -12 33 -27 68 -33 79 -7
14 -6 21 4 27 10 7 9 9 -4 9 -18 0 -42 56 -31 73 4 6 1 7 -7 2 -10 -6 -12 -4
-7 8 3 10 3 17 -1 17 -12 0 -54 119 -46 131 4 7 3 9 -3 6 -5 -3 -20 24 -33 59
-38 101 -43 104 -164 104 -78 0 -106 -4 -116 -15z m119 -271 c-9 -12 -9 -13 2
-9 9 3 18 -5 26 -24 9 -24 8 -32 -6 -47 -15 -17 -15 -17 1 -5 15 11 19 10 27
-10 5 -13 19 -48 31 -77 12 -30 22 -63 23 -73 1 -10 4 -19 8 -19 4 0 10 -12
14 -27 13 -46 14 -53 4 -47 -5 3 -9 0 -9 -7 0 -8 -5 -7 -17 2 -9 8 -14 9 -10
3 9 -15 -43 -15 -62 0 -12 8 -13 8 -7 -1 4 -8 1 -13 -8 -13 -9 0 -16 6 -16 13
0 8 -3 9 -8 1 -4 -7 -30 -10 -62 -9 -73 3 -70 2 -66 28 3 12 5 26 5 30 1 5 6
5 13 1 6 -4 8 -3 5 3 -9 14 12 73 25 73 5 0 6 4 3 10 -3 5 1 24 9 42 8 18 17
43 21 56 3 12 11 22 16 22 6 0 7 5 4 11 -4 5 1 20 12 31 10 12 13 18 6 15 -8
-5 -9 0 0 22 6 17 15 27 19 24 5 -2 4 -11 -3 -19z"/>
<path d="M3733 3348 c1 -7 -4 -12 -11 -10 -8 1 -11 -2 -7 -8 5 -8 11 -8 21 1
7 6 11 15 8 20 -8 13 -14 11 -11 -3z"/>
<path d="M3715 3301 c-3 -5 -2 -12 3 -15 5 -3 9 1 9 9 0 17 -3 19 -12 6z"/>
<path d="M3750 3286 c0 -2 7 -9 15 -16 13 -11 14 -10 9 4 -5 14 -24 23 -24 12z"/>
<path d="M3730 3251 c0 -6 4 -12 8 -15 5 -3 9 1 9 9 0 8 -4 15 -9 15 -4 0 -8
-4 -8 -9z"/>
<path d="M3706 3208 c3 -5 10 -6 15 -3 13 9 11 12 -6 12 -8 0 -12 -4 -9 -9z"/>
<path d="M3760 3216 c0 -2 8 -10 18 -17 15 -13 16 -12 3 4 -13 16 -21 21 -21
13z"/>
<path d="M3720 3190 c-9 -6 -10 -10 -3 -10 6 0 15 5 18 10 8 12 4 12 -15 0z"/>
<path d="M3670 3186 c0 -2 8 -10 18 -17 15 -13 16 -12 3 4 -13 16 -21 21 -21
13z"/>
<path d="M3715 3110 c-3 -5 -1 -10 4 -10 6 0 11 5 11 10 0 6 -2 10 -4 10 -3 0
-8 -4 -11 -10z"/>
<path d="M3799 3103 c-13 -16 -12 -17 4 -4 16 13 21 21 13 21 -2 0 -10 -8 -17
-17z"/>
<path d="M3819 3083 c-12 -16 -12 -17 2 -6 9 7 19 10 22 6 4 -3 7 -1 7 5 0 17
-16 15 -31 -5z"/>
<path d="M3610 3070 c0 -5 5 -10 11 -10 5 0 7 5 4 10 -3 6 -8 10 -11 10 -2 0
-4 -4 -4 -10z"/>
<path d="M3655 3070 c-3 -5 -1 -10 4 -10 6 0 11 5 11 10 0 6 -2 10 -4 10 -3 0
-8 -4 -11 -10z"/>
<path d="M5831 3668 c-31 -11 -29 -63 5 -84 45 -30 56 -68 59 -196 2 -108 1
-117 -14 -106 -15 12 -15 11 0 -7 22 -27 21 -171 -1 -186 -13 -9 -13 -10 1 -6
13 4 15 -6 15 -68 -1 -47 -6 -79 -16 -91 -14 -17 -14 -18 2 -5 16 12 17 10 14
-25 -3 -22 -5 -41 -6 -44 -1 -3 -1 -13 0 -24 1 -12 -2 -16 -11 -11 -8 6 -10 4
-4 -5 5 -8 -5 -24 -29 -46 -20 -18 -36 -39 -36 -46 0 -8 -6 -20 -12 -27 -9 -9
-9 -12 -1 -7 6 3 13 0 15 -6 7 -19 341 -28 357 -10 7 7 16 10 21 7 5 -3 5 9 0
26 -5 18 -7 36 -3 42 3 6 2 8 -3 4 -15 -9 -47 20 -38 35 4 7 4 10 -1 6 -4 -4
-14 0 -23 8 -12 12 -16 49 -19 174 -3 141 -2 158 13 164 10 4 21 1 26 -6 6
-10 8 -9 8 4 0 15 19 17 181 18 168 1 181 -1 175 -17 -6 -16 -6 -16 12 0 18
16 20 16 34 0 18 -22 22 -73 5 -73 -8 0 -8 -3 -2 -8 15 -10 17 -175 2 -184 -9
-6 -8 -8 2 -8 11 0 11 -3 1 -15 -7 -8 -17 -12 -23 -8 -6 3 -7 1 -3 -6 4 -6 12
-9 17 -6 14 9 11 -8 -7 -33 -8 -12 -20 -20 -25 -17 -5 3 -6 0 -3 -8 3 -8 -2
-17 -10 -20 -8 -3 -20 -15 -26 -26 -8 -17 -7 -24 10 -41 18 -18 33 -20 184
-20 136 0 166 3 177 16 15 19 19 63 4 61 -5 -1 -9 3 -8 10 2 8 -4 10 -14 6
-13 -5 -15 -2 -10 11 5 13 3 17 -7 13 -34 -13 -65 193 -34 231 10 12 10 14 1
8 -10 -6 -13 44 -11 236 1 231 8 295 31 281 6 -4 7 -1 3 6 -5 7 6 26 28 47 41
40 43 47 18 72 -16 16 -36 17 -182 15 -91 -1 -171 -3 -177 -4 -24 -4 -14 -54
17 -84 17 -16 28 -35 25 -43 -2 -7 -1 -10 5 -7 5 3 14 -11 19 -32 13 -46 14
-56 3 -49 -5 3 -9 -1 -9 -9 0 -8 4 -12 9 -9 12 8 7 -99 -6 -115 -8 -11 -8 -13
2 -7 17 10 16 -25 -2 -49 -8 -11 -20 -16 -29 -12 -9 3 -19 2 -22 -4 -4 -5 -11
-7 -16 -3 -5 3 -6 10 -3 16 4 7 2 8 -5 4 -6 -4 -9 -12 -6 -17 7 -11 -24 -7
-44 5 -9 6 -12 5 -8 0 3 -6 -19 -10 -54 -11 -54 -1 -58 1 -47 16 12 15 11 15
-6 1 -23 -18 -129 -23 -119 -6 3 6 1 6 -7 -1 -11 -10 -16 -9 -27 5 -12 15 -13
15 -7 0 4 -13 1 -15 -16 -11 -32 8 -38 29 -38 133 -1 123 9 159 53 196 36 30
48 75 23 90 -16 10 -321 12 -347 2z"/>
<path d="M7955 3670 c-56 -6 -74 -14 -71 -33 6 -34 19 -55 40 -66 33 -18 46
-52 53 -133 5 -63 4 -68 -14 -62 -16 5 -16 4 -1 -5 15 -10 16 -39 16 -284 -1
-149 -3 -279 -5 -288 -3 -8 -20 -32 -39 -53 -62 -68 -41 -86 104 -86 75 0 103
4 112 15 12 15 5 55 -11 55 -5 0 -9 7 -9 16 0 8 -4 12 -10 9 -9 -5 -12 1 -9
21 0 4 -5 10 -12 15 -16 9 -21 99 -5 99 8 0 8 2 0 8 -12 8 -15 254 -3 246 4
-2 11 0 14 6 4 6 1 9 -6 8 -17 -4 -20 51 -5 71 8 11 8 13 -1 7 -10 -5 -13 2
-13 26 0 19 6 40 13 47 6 8 7 11 1 8 -8 -4 -11 10 -11 43 l1 50 20 -23 c12
-12 28 -29 36 -37 9 -8 11 -12 5 -8 -7 4 -12 2 -12 -5 0 -7 8 -14 18 -14 20
-2 79 -57 79 -74 0 -6 5 -7 10 -4 6 3 10 0 10 -8 0 -7 11 -20 25 -27 14 -7 25
-16 25 -20 0 -4 54 -61 120 -128 66 -66 120 -126 120 -131 0 -6 7 -11 16 -11
9 0 18 -9 21 -20 3 -11 9 -18 13 -15 8 5 24 -24 22 -37 -1 -5 2 -7 8 -5 10 2
89 -79 91 -94 2 -13 6 -29 9 -31 1 -2 3 -12 5 -22 4 -23 23 -36 50 -36 51 0
50 -10 51 418 0 219 4 404 9 412 5 8 4 11 -2 7 -23 -14 1 43 33 79 36 42 44
78 18 88 -27 10 -204 7 -225 -5 -25 -13 -18 -41 21 -79 28 -27 47 -86 37 -112
-2 -7 -1 -22 3 -33 4 -11 4 -30 -1 -42 -5 -12 -4 -25 1 -28 5 -3 5 -18 1 -33
-4 -15 -5 -39 -1 -53 4 -15 4 -32 0 -39 -5 -7 -6 -19 -3 -26 9 -23 9 -144 0
-144 -5 0 -5 -4 -2 -10 3 -5 1 -10 -4 -10 -6 0 -11 5 -11 10 0 6 -18 26 -40
46 -22 20 -37 40 -34 45 3 5 1 8 -4 7 -16 -5 -174 161 -166 174 5 7 3 8 -5 4
-14 -9 -42 24 -34 38 4 5 2 6 -4 3 -11 -7 -120 103 -115 116 1 5 -2 6 -7 3
-10 -7 -33 18 -26 27 3 4 2 5 -1 3 -8 -6 -44 26 -39 34 2 3 -10 15 -26 25 -16
11 -29 25 -29 31 0 6 -11 17 -25 24 -13 7 -22 18 -18 23 3 6 2 8 -3 5 -5 -3
-34 -2 -64 1 -30 3 -77 4 -105 1z"/>
<path d="M9266 3669 c-20 -3 -39 -9 -42 -12 -8 -8 -12 -67 -4 -62 12 7 69 -49
72 -70 2 -11 7 -23 12 -27 6 -4 4 -14 -5 -24 -9 -11 -9 -15 -1 -10 9 6 12 -27
12 -148 0 -118 -3 -156 -12 -156 -9 0 -8 -4 2 -10 13 -8 13 -13 2 -31 -8 -11
-9 -18 -3 -14 16 9 14 -58 -1 -74 -10 -11 -10 -12 -1 -7 10 6 12 -16 9 -96 -4
-119 -8 -132 -53 -173 -36 -32 -47 -62 -29 -81 7 -8 56 -12 141 -13 88 -1 132
-6 137 -14 6 -9 8 -9 8 0 0 10 48 13 198 13 223 -1 256 4 275 34 28 42 43 223
22 252 -24 33 -57 10 -98 -68 -45 -87 -107 -142 -127 -111 -10 15 -11 16 -6 1
4 -15 -6 -16 -110 -14 -146 4 -149 6 -150 121 -1 59 2 82 10 78 6 -3 5 0 -1 8
-7 7 -13 17 -13 22 0 4 6 5 13 1 9 -6 9 -4 1 7 -6 8 -11 49 -10 96 1 64 6 86
20 102 21 23 42 29 30 9 -6 -10 -4 -10 7 -3 20 15 73 20 65 6 -4 -6 -2 -11 3
-11 6 0 11 5 11 10 0 19 78 -29 101 -62 44 -64 87 -86 106 -55 10 15 10 70 1
77 -4 3 -9 27 -10 53 -2 26 -6 47 -9 47 -4 0 -9 18 -13 40 -3 22 -12 41 -19
41 -6 1 -19 2 -27 3 -8 1 -31 -7 -49 -18 -36 -21 -171 -33 -171 -15 0 5 -8 5
-17 2 -12 -5 -15 -2 -10 10 4 10 2 16 -5 14 -15 -3 -17 24 -4 42 8 11 8 13 0
8 -14 -8 -14 24 0 42 8 11 8 13 -1 7 -16 -9 -17 6 -2 21 8 8 8 13 0 17 -15 10
-14 29 2 20 10 -6 10 -4 0 7 -15 15 -17 33 -4 25 5 -3 8 2 7 11 -2 28 42 41
137 41 135 0 168 -18 261 -140 27 -37 67 -51 80 -29 23 36 -24 224 -61 248
-18 12 -80 15 -331 16 -170 1 -326 -1 -346 -4z"/>
<path d="M9576 3552 c-3 -4 4 -9 15 -9 23 -2 25 3 4 10 -8 4 -16 3 -19 -1z"/>
<path d="M6836 3523 c-6 -14 -5 -15 5 -6 7 7 10 15 7 18 -3 3 -9 -2 -12 -12z"/>
<path d="M7553 3525 c0 -8 4 -12 9 -9 5 3 6 10 3 15 -9 13 -12 11 -12 -6z"/>
<path d="M3553 3495 c0 -8 4 -12 9 -9 5 3 6 10 3 15 -9 13 -12 11 -12 -6z"/>
<path d="M5836 3463 c-6 -14 -5 -15 5 -6 7 7 10 15 7 18 -3 3 -9 -2 -12 -12z"/>
<path d="M7236 3463 c-6 -14 -5 -15 5 -6 7 7 10 15 7 18 -3 3 -9 -2 -12 -12z"/>
<path d="M8875 3461 c-3 -5 -2 -12 3 -15 5 -3 9 1 9 9 0 17 -3 19 -12 6z"/>
<path d="M1870 3451 c0 -6 4 -13 10 -16 6 -3 7 1 4 9 -7 18 -14 21 -14 7z"/>
<path d="M9653 3441 c0 -11 5 -18 9 -15 4 3 5 11 1 19 -7 21 -12 19 -10 -4z"/>
<path d="M9795 3450 c3 -5 8 -10 11 -10 2 0 4 5 4 10 0 6 -5 10 -11 10 -5 0
-7 -4 -4 -10z"/>
<path d="M2895 3441 c-3 -5 -2 -12 3 -15 5 -3 9 1 9 9 0 17 -3 19 -12 6z"/>
<path d="M5874 3410 c0 -13 4 -16 10 -10 7 7 7 13 0 20 -6 6 -10 3 -10 -10z"/>
<path d="M5835 3411 c-3 -5 -2 -12 3 -15 5 -3 9 1 9 9 0 17 -3 19 -12 6z"/>
<path d="M9654 3386 c1 -8 5 -18 8 -22 4 -3 5 1 4 10 -1 8 -5 18 -8 22 -4 3
-5 -1 -4 -10z"/>
<path d="M6155 3381 c-3 -5 -2 -12 3 -15 5 -3 9 1 9 9 0 17 -3 19 -12 6z"/>
<path d="M2260 3370 c-9 -6 -10 -10 -3 -10 6 0 15 5 18 10 8 12 4 12 -15 0z"/>
<path d="M5846 3352 c-3 -5 1 -9 9 -9 8 0 12 4 9 9 -3 4 -7 8 -9 8 -2 0 -6 -4
-9 -8z"/>
<path d="M9629 3333 c-13 -16 -12 -17 4 -4 9 7 17 15 17 17 0 8 -8 3 -21 -13z"/>
<path d="M4816 3312 c-3 -4 4 -9 15 -9 23 -2 25 3 4 10 -8 4 -16 3 -19 -1z"/>
<path d="M6190 3315 c0 -5 5 -17 10 -25 5 -8 10 -10 10 -5 0 6 -5 17 -10 25
-5 8 -10 11 -10 5z"/>
<path d="M6496 3312 c-3 -5 1 -9 9 -9 8 0 12 4 9 9 -3 4 -7 8 -9 8 -2 0 -6 -4
-9 -8z"/>
<path d="M2013 3297 c0 -8 6 -14 14 -14 9 0 10 4 2 14 -6 7 -12 13 -14 13 -1
0 -2 -6 -2 -13z"/>
<path d="M2649 3293 c-13 -16 -12 -17 4 -4 9 7 17 15 17 17 0 8 -8 3 -21 -13z"/>
<path d="M8139 3297 c8 -9 16 -15 19 -12 3 3 12 -1 21 -8 14 -11 14 -10 2 6
-8 9 -16 15 -19 12 -3 -3 -12 1 -21 8 -14 11 -14 10 -2 -6z"/>
<path d="M6816 3288 c3 -5 10 -6 15 -3 13 9 11 12 -6 12 -8 0 -12 -4 -9 -9z"/>
<path d="M8110 3293 c0 -6 8 -17 18 -24 16 -13 16 -13 2 6 -8 11 -16 22 -17
24 -2 2 -3 0 -3 -6z"/>
<path d="M2017 3249 c4 -13 8 -18 11 -10 2 7 -1 18 -6 23 -8 8 -9 4 -5 -13z"/>
<path d="M2040 3261 c0 -6 4 -13 10 -16 6 -3 7 1 4 9 -7 18 -14 21 -14 7z"/>
<path d="M8113 3245 c0 -8 4 -12 9 -9 5 3 6 10 3 15 -9 13 -12 11 -12 -6z"/>
<path d="M8191 3237 c-13 -21 -12 -21 5 -5 10 10 16 20 13 22 -3 3 -11 -5 -18
-17z"/>
<path d="M8606 3228 c3 -5 10 -6 15 -3 13 9 11 12 -6 12 -8 0 -12 -4 -9 -9z"/>
<path d="M2414 3212 c4 -3 14 -7 22 -8 9 -1 13 0 10 4 -4 3 -14 7 -22 8 -9 1
-13 0 -10 -4z"/>
<path d="M2031 3197 c-8 -10 -7 -14 2 -14 8 0 14 6 14 14 0 7 -1 13 -2 13 -2
0 -8 -6 -14 -13z"/>
<path d="M2335 3190 c-3 -5 -1 -10 4 -10 6 0 11 5 11 10 0 6 -2 10 -4 10 -3 0
-8 -4 -11 -10z"/>
<path d="M4816 3192 c-3 -5 1 -9 9 -9 8 0 12 4 9 9 -3 4 -7 8 -9 8 -2 0 -6 -4
-9 -8z"/>
<path d="M8610 3190 c0 -5 5 -10 11 -10 5 0 7 5 4 10 -3 6 -8 10 -11 10 -2 0
-4 -4 -4 -10z"/>
<path d="M7895 3171 c-3 -5 -2 -12 3 -15 5 -3 9 1 9 9 0 17 -3 19 -12 6z"/>
<path d="M8276 3163 c-6 -14 -5 -15 5 -6 7 7 10 15 7 18 -3 3 -9 -2 -12 -12z"/>
<path d="M8175 3150 c-3 -5 -1 -10 4 -10 6 0 11 5 11 10 0 6 -2 10 -4 10 -3 0
-8 -4 -11 -10z"/>
<path d="M2046 3135 c-11 -8 -15 -15 -9 -15 6 0 16 7 23 15 16 19 11 19 -14 0z"/>
<path d="M2649 3133 c-13 -16 -12 -17 4 -4 16 13 21 21 13 21 -2 0 -10 -8 -17
-17z"/>
<path d="M9593 3135 c0 -8 4 -12 9 -9 5 3 6 10 3 15 -9 13 -12 11 -12 -6z"/>
<path d="M4815 3130 c-3 -5 -1 -10 4 -10 6 0 11 5 11 10 0 6 -2 10 -4 10 -3 0
-8 -4 -11 -10z"/>
<path d="M9536 3129 c4 -8 30 -6 38 2 3 3 -5 5 -19 5 -13 0 -22 -3 -19 -7z"/>
<path d="M2350 3110 c0 -5 9 -8 20 -7 21 1 18 10 -5 13 -8 1 -15 -2 -15 -6z"/>
<path d="M2627 3109 c7 -7 15 -10 18 -7 3 3 -2 9 -12 12 -14 6 -15 5 -6 -5z"/>
<path d="M6395 3110 c3 -5 8 -10 11 -10 2 0 4 5 4 10 0 6 -5 10 -11 10 -5 0
-7 -4 -4 -10z"/>
<path d="M2033 3095 c0 -8 4 -12 9 -9 5 3 6 10 3 15 -9 13 -12 11 -12 -6z"/>
<path d="M2595 3101 c-3 -5 -2 -12 3 -15 5 -3 9 1 9 9 0 17 -3 19 -12 6z"/>
<path d="M9536 3097 c3 -10 9 -15 12 -12 3 3 0 11 -7 18 -10 9 -11 8 -5 -6z"/>
<path d="M6434 3072 c4 -3 14 -7 22 -8 9 -1 13 0 10 4 -4 3 -14 7 -22 8 -9 1
-13 0 -10 -4z"/>
<path d="M8335 3070 c-3 -5 -1 -10 4 -10 6 0 11 5 11 10 0 6 -2 10 -4 10 -3 0
-8 -4 -11 -10z"/>
<path d="M2590 3066 c0 -2 8 -10 18 -17 15 -13 16 -12 3 4 -13 16 -21 21 -21
13z"/>
<path d="M8250 3056 c0 -2 7 -7 16 -10 8 -3 12 -2 9 4 -6 10 -25 14 -25 6z"/>
<path d="M2575 3030 c-3 -5 -1 -10 4 -10 6 0 11 5 11 10 0 6 -2 10 -4 10 -3 0
-8 -4 -11 -10z"/>
<path d="M8375 3030 c3 -5 8 -10 11 -10 2 0 4 5 4 10 0 6 -5 10 -11 10 -5 0
-7 -4 -4 -10z"/>
<path d="M9615 3010 c3 -5 8 -10 11 -10 2 0 4 5 4 10 0 6 -5 10 -11 10 -5 0
-7 -4 -4 -10z"/>
<path d="M2015 2990 c3 -5 8 -10 11 -10 2 0 4 5 4 10 0 6 -5 10 -11 10 -5 0
-7 -4 -4 -10z"/>
<path d="M2050 2989 c0 -5 5 -7 10 -4 6 3 10 8 10 11 0 2 -4 4 -10 4 -5 0 -10
-5 -10 -11z"/>
<path d="M2110 2996 c0 -2 7 -7 16 -10 8 -3 12 -2 9 4 -6 10 -25 14 -25 6z"/>
<path d="M2673 2993 c4 -3 1 -13 -6 -22 -11 -14 -10 -14 5 -2 16 12 16 31 1
31 -4 0 -3 -3 0 -7z"/>
<path d="M6474 2986 c1 -8 5 -18 8 -22 4 -3 5 1 4 10 -1 8 -5 18 -8 22 -4 3
-5 -1 -4 -10z"/>
<path d="M5860 2970 c-9 -6 -10 -10 -3 -10 6 0 15 5 18 10 8 12 4 12 -15 0z"/>
<path d="M2050 2949 c0 -5 5 -7 10 -4 6 3 10 8 10 11 0 2 -4 4 -10 4 -5 0 -10
-5 -10 -11z"/>
<path d="M6114 2930 c0 -13 4 -16 10 -10 7 7 7 13 0 20 -6 6 -10 3 -10 -10z"/>
<path d="M3690 2930 c0 -5 5 -10 11 -10 5 0 7 5 4 10 -3 6 -8 10 -11 10 -2 0
-4 -4 -4 -10z"/>
<path d="M6467 2929 c7 -7 15 -10 18 -7 3 3 -2 9 -12 12 -14 6 -15 5 -6 -5z"/>
<path d="M6800 2930 c-9 -6 -10 -10 -3 -10 6 0 15 5 18 10 8 12 4 12 -15 0z"/>
<path d="M8496 2928 c3 -5 10 -6 15 -3 13 9 11 12 -6 12 -8 0 -12 -4 -9 -9z"/>
<path d="M4953 2915 c0 -8 4 -12 9 -9 5 3 6 10 3 15 -9 13 -12 11 -12 -6z"/>
<path d="M3753 2895 c0 -8 4 -15 9 -15 4 0 8 4 8 9 0 6 -4 12 -8 15 -5 3 -9
-1 -9 -9z"/>
<path d="M9230 2890 c0 -5 5 -10 11 -10 5 0 7 5 4 10 -3 6 -8 10 -11 10 -2 0
-4 -4 -4 -10z"/>
<path d="M2096 2872 c-3 -4 4 -9 15 -9 23 -2 25 3 4 10 -8 4 -16 3 -19 -1z"/>
<path d="M2576 2868 c3 -5 10 -6 15 -3 13 9 11 12 -6 12 -8 0 -12 -4 -9 -9z"/>
<path d="M2615 2870 c-3 -5 -1 -10 4 -10 6 0 11 5 11 10 0 6 -2 10 -4 10 -3 0
-8 -4 -11 -10z"/>
<path d="M3550 2869 c0 -5 5 -7 10 -4 6 3 10 8 10 11 0 2 -4 4 -10 4 -5 0 -10
-5 -10 -11z"/>
<path d="M3595 2870 c3 -5 8 -10 11 -10 2 0 4 5 4 10 0 6 -5 10 -11 10 -5 0
-7 -4 -4 -10z"/>
<path d="M5846 2872 c-3 -5 1 -9 9 -9 8 0 12 4 9 9 -3 4 -7 8 -9 8 -2 0 -6 -4
-9 -8z"/>
<path d="M8535 2870 c3 -5 8 -10 11 -10 2 0 4 5 4 10 0 6 -5 10 -11 10 -5 0
-7 -4 -4 -10z"/>
<path d="M6820 2850 c-9 -6 -10 -10 -3 -10 6 0 15 5 18 10 8 12 4 12 -15 0z"/>
<path d="M3813 2835 c0 -8 4 -12 9 -9 5 3 6 10 3 15 -9 13 -12 11 -12 -6z"/>
<path d="M2166 2832 c-3 -5 1 -9 9 -9 8 0 12 4 9 9 -3 4 -7 8 -9 8 -2 0 -6 -4
-9 -8z"/>
<path d="M2215 2830 c3 -5 8 -10 11 -10 2 0 4 5 4 10 0 6 -5 10 -11 10 -5 0
-7 -4 -4 -10z"/>
<path d="M3906 2828 c3 -5 10 -6 15 -3 13 9 11 12 -6 12 -8 0 -12 -4 -9 -9z"/>
<path d="M9535 2830 c-3 -5 -1 -10 4 -10 6 0 11 5 11 10 0 6 -2 10 -4 10 -3 0
-8 -4 -11 -10z"/>
<path d="M8615 2821 c-3 -5 -2 -12 3 -15 5 -3 9 1 9 9 0 17 -3 19 -12 6z"/>
<path d="M5120 2810 c-9 -6 -10 -10 -3 -10 6 0 15 5 18 10 8 12 4 12 -15 0z"/>
<path d="M2213 2795 c0 -8 4 -12 9 -9 5 3 6 10 3 15 -9 13 -12 11 -12 -6z"/>
<path d="M3915 2801 c-3 -5 -2 -12 3 -15 5 -3 9 1 9 9 0 17 -3 19 -12 6z"/>
<path d="M3846 2792 c-3 -5 1 -9 9 -9 8 0 12 4 9 9 -3 4 -7 8 -9 8 -2 0 -6 -4
-9 -8z"/>
<path d="M4673 2775 c0 -8 4 -12 9 -9 5 3 6 10 3 15 -9 13 -12 11 -12 -6z"/>
<path d="M4750 2709 c0 -5 5 -7 10 -4 6 3 10 8 10 11 0 2 -4 4 -10 4 -5 0 -10
-5 -10 -11z"/>
<path d="M9440 2630 c-12 -7 -10 -9 7 -7 12 0 19 5 17 9 -6 10 -6 10 -24 -2z"/>
<path d="M7354 2610 c0 -13 4 -16 10 -10 7 7 7 13 0 20 -6 6 -10 3 -10 -10z"/>
<path d="M7410 2609 c0 -5 5 -7 10 -4 6 3 10 8 10 11 0 2 -4 4 -10 4 -5 0 -10
-5 -10 -11z"/>
<path d="M9326 2608 c3 -5 10 -6 15 -3 13 9 11 12 -6 12 -8 0 -12 -4 -9 -9z"/>
<path d="M9386 2608 c3 -5 10 -6 15 -3 13 9 11 12 -6 12 -8 0 -12 -4 -9 -9z"/>
<path d="M6745 2570 c-3 -6 1 -7 9 -4 18 7 21 14 7 14 -6 0 -13 -4 -16 -10z"/>
<path d="M7239 2563 c-13 -16 -12 -17 4 -4 9 7 17 15 17 17 0 8 -8 3 -21 -13z"/>
<path d="M7426 2568 c3 -5 10 -6 15 -3 13 9 11 12 -6 12 -8 0 -12 -4 -9 -9z"/>
<path d="M3395 2530 c3 -5 8 -10 11 -10 2 0 4 5 4 10 0 6 -5 10 -11 10 -5 0
-7 -4 -4 -10z"/>
</g>
</svg>
